<?xml version="1.0" encoding="UTF-8"?>
<!DOCTYPE svg PUBLIC "-//W3C//DTD SVG 1.1//EN" "http://www.w3.org/Graphics/SVG/1.1/DTD/svg11.dtd">
<!-- Creator: CorelDRAW 2020 (64-Bit) -->
<svg xmlns="http://www.w3.org/2000/svg" xml:space="preserve" width="100mm" height="100mm" version="1.1" style="shape-rendering:geometricPrecision; text-rendering:geometricPrecision; image-rendering:optimizeQuality; fill-rule:evenodd; clip-rule:evenodd"
viewBox="0 0 10000 10000"
 xmlns:xlink="http://www.w3.org/1999/xlink"
 xmlns:xodm="http://www.corel.com/coreldraw/odm/2003">
 <defs>
  <style type="text/css">
   <![CDATA[
    .fil0 {fill:#0FF2B5;fill-rule:nonzero}
   ]]>
  </style>
 </defs>
 <g id="Layer_x0020_1">
  <metadata id="CorelCorpID_0Corel-Layer"/>
  <path class="fil0" d="M6507.14 1977.27l2322.97 4148.74 0 1.48 0.44 0.8 0.64 -0.35c58.15,103.83 104.09,217.62 135.72,339.3 30.87,118.68 47.31,240.03 47.31,361.69 0,396.65 -160.81,755.81 -420.79,1015.8 -259.97,259.99 -619.12,420.79 -1015.8,420.79 -254.55,0 -494.28,-66.82 -702.6,-183.93 -214.91,-120.83 -395.71,-295.73 -524.01,-506.35 -6.55,-10.76 -15.72,-26.67 -27.47,-47.71l-26.21 -47.07 0.61 -0.31 -1118.33 -2002.27 -1114.16 1994.84 0.61 0.31 -26.21 47.07c-11.75,21.03 -20.92,36.94 -27.47,47.7 -128.3,210.62 -309.09,385.52 -524.01,506.35 -208.32,117.12 -448.03,183.94 -702.6,183.94 -396.68,0 -755.83,-160.81 -1015.79,-420.8 -259.99,-259.99 -420.8,-619.14 -420.8,-1015.79 0,-121.66 16.44,-243.01 47.31,-361.7 31.63,-121.67 77.57,-235.47 135.72,-339.3l0.64 0.35 0.44 -0.79 0 -1.49 2338.53 -4176.52c18.01,-40.31 36.94,-78.16 56.69,-113.44 23.17,-41.4 50.7,-84.52 82.25,-129.04 132.12,-186.4 308.04,-340.03 512.83,-445.97 198.39,-102.64 422.38,-160.6 658.5,-160.6 299.48,0 578.34,92.54 809.54,250.7 227.21,155.44 407.63,375.22 515.5,633.57zm1658.96 4520.93l-0.64 0.36 -2331.97 -4164.81 -22.35 -49.18c-49.3,-126.88 -136.82,-235.46 -248.69,-311.99 -107.51,-73.54 -238.44,-116.58 -380.35,-116.58 -112.9,0 -218.18,26.78 -309.79,74.17 -96.19,49.76 -179.08,122.28 -241.62,210.51 -11.57,16.33 -24.11,36.52 -37.52,60.48 -12.66,22.6 -23.21,43.72 -31.5,63.13l-17.88 37.26 -2345.84 4189.57 -0.64 -0.35 -0.45 0.8 0 1.48c-28.42,50.78 -50.19,103.69 -64.18,157.51 -13.37,51.41 -20.49,108.59 -20.49,170.94 0,186.03 75.39,354.45 197.26,476.32 121.87,121.87 290.29,197.27 476.33,197.27 120.57,0 233.13,-31.09 330.05,-85.58 101.45,-57.05 186.63,-139.3 246.81,-238.11l12.57 -20.88c4.18,-7.49 -0.44,-0.16 11.32,-23.22l7.45 -11.93 1785.63 -3197.04 1789.83 3204.48 7.44 11.92c11.78,23.08 7.14,15.74 11.32,23.22l12.57 20.89c60.18,98.8 145.36,181.06 246.81,238.1 96.91,54.48 209.47,85.58 330.05,85.58 186.04,0 354.46,-75.4 476.33,-197.26 121.87,-121.88 197.26,-290.3 197.26,-476.33 0,-62.34 -7.12,-119.52 -20.49,-170.93 -13.99,-53.83 -35.76,-106.74 -64.18,-157.51l0 -1.49 -0.45 -0.8z"/>
 </g>
</svg>
