<?xml version="1.0" encoding="UTF-8"?>
<svg xmlns="http://www.w3.org/2000/svg" xmlns:xlink="http://www.w3.org/1999/xlink" width="50px" height="50px" viewBox="0 0 50 50" version="1.1">
<g id="surface1">
<path style=" stroke:none;fill-rule:nonzero;fill:rgb(5.882353%,94.901961%,70.980394%);fill-opacity:1;" d="M 32.566406 9.894531 L 44.191406 30.660156 L 44.191406 30.667969 L 44.195312 30.671875 L 44.195312 30.667969 C 44.488281 31.1875 44.71875 31.757812 44.875 32.367188 C 45.03125 32.960938 45.113281 33.566406 45.113281 34.175781 C 45.113281 36.160156 44.308594 37.960938 43.007812 39.261719 C 41.707031 40.5625 39.910156 41.367188 37.921875 41.367188 C 36.648438 41.367188 35.449219 41.03125 34.40625 40.445312 C 33.332031 39.839844 32.425781 38.964844 31.785156 37.910156 C 31.753906 37.859375 31.707031 37.777344 31.648438 37.671875 L 31.515625 37.4375 L 31.519531 37.4375 L 25.921875 27.414062 L 20.347656 37.398438 L 20.21875 37.636719 C 20.160156 37.742188 20.113281 37.820312 20.082031 37.875 C 19.4375 38.929688 18.535156 39.804688 17.457031 40.410156 C 16.414062 40.996094 15.214844 41.328125 13.941406 41.328125 C 11.957031 41.328125 10.160156 40.523438 8.859375 39.222656 C 7.558594 37.921875 6.753906 36.125 6.753906 34.140625 C 6.753906 33.53125 6.835938 32.921875 6.988281 32.328125 C 7.148438 31.71875 7.378906 31.152344 7.667969 30.632812 L 7.671875 30.632812 L 7.671875 30.621094 L 19.378906 9.71875 C 19.46875 9.519531 19.5625 9.328125 19.660156 9.152344 C 19.777344 8.945312 19.914062 8.730469 20.074219 8.503906 C 20.734375 7.574219 21.613281 6.804688 22.640625 6.273438 C 23.632812 5.761719 24.753906 5.46875 25.933594 5.46875 C 27.433594 5.46875 28.828125 5.933594 29.984375 6.726562 C 31.125 7.503906 32.027344 8.601562 32.566406 9.894531 Z M 40.867188 32.519531 L 40.867188 32.523438 L 29.195312 11.679688 L 29.082031 11.433594 C 28.835938 10.796875 28.398438 10.253906 27.839844 9.871094 C 27.300781 9.503906 26.644531 9.289062 25.933594 9.289062 C 25.371094 9.289062 24.84375 9.421875 24.382812 9.660156 C 23.902344 9.910156 23.488281 10.273438 23.175781 10.714844 C 23.117188 10.796875 23.054688 10.894531 22.988281 11.015625 C 22.925781 11.128906 22.871094 11.234375 22.828125 11.332031 L 22.738281 11.519531 L 11 32.484375 L 10.996094 32.484375 L 10.996094 32.496094 C 10.851562 32.75 10.742188 33.015625 10.671875 33.285156 C 10.605469 33.542969 10.570312 33.828125 10.570312 34.140625 C 10.570312 35.070312 10.949219 35.914062 11.558594 36.523438 C 12.167969 37.132812 13.011719 37.511719 13.941406 37.511719 C 14.546875 37.511719 15.109375 37.355469 15.59375 37.082031 C 16.101562 36.796875 16.527344 36.386719 16.828125 35.890625 L 16.890625 35.785156 C 16.914062 35.75 16.890625 35.785156 16.949219 35.667969 L 16.984375 35.609375 L 25.921875 19.609375 L 34.878906 35.648438 L 34.917969 35.707031 C 34.976562 35.824219 34.953125 35.785156 34.972656 35.824219 L 35.035156 35.925781 C 35.335938 36.421875 35.765625 36.832031 36.273438 37.121094 C 36.757812 37.390625 37.320312 37.546875 37.921875 37.546875 C 38.855469 37.546875 39.699219 37.171875 40.308594 36.558594 C 40.917969 35.949219 41.292969 35.109375 41.292969 34.175781 C 41.292969 33.863281 41.257812 33.578125 41.191406 33.320312 C 41.121094 33.050781 41.011719 32.785156 40.871094 32.53125 L 40.871094 32.523438 Z M 40.867188 32.519531 "/>
</g>
</svg>
